<svg xmlns="http://www.w3.org/2000/svg" xmlns:xlink="http://www.w3.org/1999/xlink" xmlns:lucid="lucid" width="1342" height="828.15"><g transform="translate(-179.00000000000003 -39)" lucid:page-tab-id="HWEp-vi-RSFO"><path d="M0 0h1629v955H0z" fill="#fff"/><path d="M433.55 68a8 8 0 0 1 8-8h823.83a8 8 0 0 1 8 8v35.17a8 8 0 0 1-8 8H441.55a8 8 0 0 1-8-8z" stroke="#000" stroke-opacity="0" stroke-width="2" fill="#fff" fill-opacity="0"/><use xlink:href="#a" transform="matrix(1,0,0,1,437.5534231976863,64) translate(215.81185185185188 30.76888888888888)"/><use xlink:href="#b" transform="matrix(1,0,0,1,437.5534231976863,64) translate(385.3204938271605 30.76888888888888)"/><use xlink:href="#c" transform="matrix(1,0,0,1,437.5534231976863,64) translate(508.11185185185184 30.76888888888888)"/><path d="M705.86 104.24l304.65 5.25M705.9 104.24l-1.04-.02M1010.48 109.5h1.03" stroke="#a9afb8" stroke-width="2" fill="none"/><path d="M433.55 113.53a8 8 0 0 1 8-8h824.78a8 8 0 0 1 8 8v2.25a8 8 0 0 1-8 8H441.55a8 8 0 0 1-8-8z" stroke="#000" stroke-opacity="0" stroke-width="2" fill="#fff" fill-opacity="0"/><use xlink:href="#d" transform="matrix(1,0,0,1,437.5534231976867,109.52537372266482) translate(189.2109773662553 22.02814814814814)"/><use xlink:href="#e" transform="matrix(1,0,0,1,437.5534231976867,109.52537372266482) translate(307.18093621399186 22.02814814814814)"/><use xlink:href="#f" transform="matrix(1,0,0,1,437.5534231976867,109.52537372266482) translate(411.8490432098765 22.02814814814814)"/><use xlink:href="#g" transform="matrix(1,0,0,1,437.5534231976867,109.52537372266482) translate(431.5330967078189 22.02814814814814)"/><use xlink:href="#h" transform="matrix(1,0,0,1,437.5534231976867,109.52537372266482) translate(556.3555246913579 22.02814814814814)"/><use xlink:href="#i" transform="matrix(1,0,0,1,437.5534231976867,109.52537372266482) translate(596.6641666666665 22.02814814814814)"/><path d="M200 220.68h393.94v253H200z" stroke="#333" stroke-width="2" fill="#fff"/><path d="M200 301.2h393.94" stroke="#333" stroke-width="2" fill="none"/><use xlink:href="#j" transform="matrix(1,0,0,1,208.00000000000003,228.67991052425478) translate(101.72314814814816 21.744444444444447)"/><use xlink:href="#k" transform="matrix(1,0,0,1,208.00000000000003,228.67991052425478) translate(66.84228395061727 54.011111111111106)"/><use xlink:href="#l" transform="matrix(1,0,0,1,212.00000000000003,309.2132438575881) translate(143.0101851851852 55.555555555555564)"/><use xlink:href="#m" transform="matrix(1,0,0,1,212.00000000000003,309.2132438575881) translate(162.33734567901234 55.555555555555564)"/><use xlink:href="#l" transform="matrix(1,0,0,1,212.00000000000003,309.2132438575881) translate(133.65833333333336 82.48888888888888)"/><use xlink:href="#n" transform="matrix(1,0,0,1,212.00000000000003,309.2132438575881) translate(152.9854938271605 82.48888888888888)"/><use xlink:href="#l" transform="matrix(1,0,0,1,212.00000000000003,309.2132438575881) translate(13.580555555555634 109.42222222222222)"/><use xlink:href="#o" transform="matrix(1,0,0,1,212.00000000000003,309.2132438575881) translate(32.907716049382785 109.42222222222222)"/><use xlink:href="#p" transform="matrix(1,0,0,1,212.00000000000003,309.2132438575881) translate(278.0509259259259 109.42222222222222)"/><path d="M692.42 220.68h354.55v253H692.42z" stroke="#333" stroke-width="2" fill="#fff"/><path d="M692.42 301.2h354.55" stroke="#333" stroke-width="2" fill="none"/><use xlink:href="#j" transform="matrix(1,0,0,1,700.4242424242424,228.67991052425478) translate(82.22314814814816 21.744444444444447)"/><use xlink:href="#q" transform="matrix(1,0,0,1,700.4242424242424,228.67991052425478) translate(45.36296296296297 54.011111111111106)"/><use xlink:href="#l" transform="matrix(1,0,0,1,704.4242424242424,309.2132438575881) translate(56.98734567901238 55.555555555555564)"/><use xlink:href="#r" transform="matrix(1,0,0,1,704.4242424242424,309.2132438575881) translate(76.31450617283953 55.555555555555564)"/><use xlink:href="#s" transform="matrix(1,0,0,1,704.4242424242424,309.2132438575881) translate(190.65648148148148 55.555555555555564)"/><use xlink:href="#l" transform="matrix(1,0,0,1,704.4242424242424,309.2132438575881) translate(110.41759259259263 82.48888888888888)"/><use xlink:href="#t" transform="matrix(1,0,0,1,704.4242424242424,309.2132438575881) translate(129.7447530864198 82.48888888888888)"/><use xlink:href="#l" transform="matrix(1,0,0,1,704.4242424242424,309.2132438575881) translate(63.87654320987659 109.42222222222222)"/><use xlink:href="#u" transform="matrix(1,0,0,1,704.4242424242424,309.2132438575881) translate(83.20370370370374 109.42222222222222)"/><path d="M1145.45 220.68H1500v253h-354.55z" stroke="#333" stroke-width="2" fill="#fff"/><path d="M1145.45 301.2H1500" stroke="#333" stroke-width="2" fill="none"/><g><use xlink:href="#j" transform="matrix(1,0,0,1,1153.4545454545455,228.67991052425478) translate(82.22314814814816 21.744444444444447)"/><use xlink:href="#v" transform="matrix(1,0,0,1,1153.4545454545455,228.67991052425478) translate(51.03950617283952 54.011111111111106)"/></g><g><use xlink:href="#w" transform="matrix(1,0,0,1,1157.4545454545455,309.2132438575881) translate(42.05555555555564 55.55555555555557)"/><use xlink:href="#x" transform="matrix(1,0,0,1,1157.4545454545455,309.2132438575881) translate(61.38271604938279 55.55555555555557)"/><use xlink:href="#y" transform="matrix(1,0,0,1,1157.4545454545455,309.2132438575881) translate(256.71172839506164 55.55555555555557)"/><use xlink:href="#w" transform="matrix(1,0,0,1,1157.4545454545455,309.2132438575881) translate(56.893827160493885 82.48888888888888)"/><use xlink:href="#z" transform="matrix(1,0,0,1,1157.4545454545455,309.2132438575881) translate(76.22098765432104 82.48888888888888)"/><use xlink:href="#w" transform="matrix(1,0,0,1,1157.4545454545455,309.2132438575881) translate(71.2333333333334 109.4222222222222)"/><use xlink:href="#A" transform="matrix(1,0,0,1,1157.4545454545455,309.2132438575881) translate(90.56049382716056 109.4222222222222)"/></g><path d="M692.42 705.15h354.55v141H692.42z" stroke="#333" stroke-width="2" fill="#fff"/><path d="M692.42 753.42h354.55m-354.55 46.2h354.55" stroke="#333" stroke-width="2" fill="none"/><g><use xlink:href="#B" transform="matrix(1,0,0,1,700.4242424242424,713.1544521727121) translate(128.41975308641977 21.877777777777776)"/></g><path d="M869.7 703.65V601.42a12 12 0 0 0-12-12h-446a12 12 0 0 1-12-12v-79.74" stroke="#333" fill="none"/><path d="M870.17 704.15h-.95v-.5h.95z" stroke="#333" stroke-width=".05" fill="#333"/><path d="M399.7 475.66l12.74 21.52h-25.46z" stroke="#333" fill="#fff"/><path d="M869.7 703.65V497.68" stroke="#333" fill="none"/><path d="M870.17 704.15h-.95v-.5h.95z" stroke="#333" stroke-width=".05" fill="#333"/><path d="M869.7 475.66l12.72 21.52h-25.45z" stroke="#333" fill="#fff"/><path d="M869.7 703.65V601.42a12 12 0 0 1 12-12h427.64a12 12 0 0 0 12-12v-79.74" stroke="#333" fill="none"/><path d="M870.17 704.15h-.95v-.5h.95z" stroke="#333" stroke-width=".05" fill="#333"/><path d="M1321.34 475.66l12.73 21.52h-25.45z" stroke="#333" fill="#fff"/><defs><path fill="#a9afb8" d="M24-248c120-7 223 5 221 122C244-46 201 0 124 0H24v-248zM76-40c74 7 117-18 117-86 0-67-45-88-117-82v168" id="C"/><path fill="#a9afb8" d="M25-224v-37h50v37H25zM25 0v-190h50V0H25" id="D"/><path fill="#a9afb8" d="M133-34C117-15 103 5 69 4 32 3 11-16 11-54c-1-60 55-63 116-61 1-26-3-47-28-47-18 1-26 9-28 27l-52-2c7-38 36-58 82-57s74 22 75 68l1 82c-1 14 12 18 25 15v27c-30 8-71 5-69-32zm-48 3c29 0 43-24 42-57-32 0-66-3-65 30 0 17 8 27 23 27" id="E"/><path fill="#a9afb8" d="M195-6C206 82 75 100 31 46c-4-6-6-13-8-21l49-6c3 16 16 24 34 25 40 0 42-37 40-79-11 22-30 35-61 35-53 0-70-43-70-97 0-56 18-96 73-97 30 0 46 14 59 34l2-30h47zm-90-29c32 0 41-27 41-63 0-35-9-62-40-62-32 0-39 29-40 63 0 36 9 62 39 62" id="F"/><path fill="#a9afb8" d="M135-150c-39-12-60 13-60 57V0H25l-1-190h47c2 13-1 29 3 40 6-28 27-53 61-41v41" id="G"/><path fill="#a9afb8" d="M220-157c-53 9-28 100-34 157h-49v-107c1-27-5-49-29-50C55-147 81-57 75 0H25l-1-190h47c2 12-1 28 3 38 10-53 101-56 108 0 13-22 24-43 59-42 82 1 51 116 57 194h-49v-107c-1-25-5-48-29-50" id="H"/><g id="a"><use transform="matrix(0.09753086419753083,0,0,0.09753086419753083,0,0)" xlink:href="#C"/><use transform="matrix(0.09753086419753083,0,0,0.09753086419753083,25.260493827160484,0)" xlink:href="#D"/><use transform="matrix(0.09753086419753083,0,0,0.09753086419753083,35.01358024691357,0)" xlink:href="#E"/><use transform="matrix(0.09753086419753083,0,0,0.09753086419753083,54.51975308641973,0)" xlink:href="#F"/><use transform="matrix(0.09753086419753083,0,0,0.09753086419753083,75.879012345679,0)" xlink:href="#G"/><use transform="matrix(0.09753086419753083,0,0,0.09753086419753083,89.53333333333332,0)" xlink:href="#E"/><use transform="matrix(0.09753086419753083,0,0,0.09753086419753083,109.03950617283947,0)" xlink:href="#H"/><use transform="matrix(0.09753086419753083,0,0,0.09753086419753083,140.24938271604935,0)" xlink:href="#E"/></g><path fill="#a9afb8" d="M67-125c0 53 21 87 73 88 37 1 54-22 65-47l45 17C233-25 199 4 140 4 58 4 20-42 15-125 8-235 124-281 211-232c18 10 29 29 36 50l-46 12c-8-25-30-41-62-41-52 0-71 34-72 86" id="I"/><path fill="#a9afb8" d="M25 0v-261h50V0H25" id="J"/><path fill="#a9afb8" d="M137-138c1-29-70-34-71-4 15 46 118 7 119 86 1 83-164 76-172 9l43-7c4 19 20 25 44 25 33 8 57-30 24-41C81-84 22-81 20-136c-2-80 154-74 161-7" id="K"/><path fill="#a9afb8" d="M185-48c-13 30-37 53-82 52C43 2 14-33 14-96s30-98 90-98c62 0 83 45 84 108H66c0 31 8 55 39 56 18 0 30-7 34-22zm-45-69c5-46-57-63-70-21-2 6-4 13-4 21h74" id="L"/><g id="b"><use transform="matrix(0.09753086419753083,0,0,0.09753086419753083,0,0)" xlink:href="#I"/><use transform="matrix(0.09753086419753083,0,0,0.09753086419753083,25.260493827160484,0)" xlink:href="#J"/><use transform="matrix(0.09753086419753083,0,0,0.09753086419753083,35.01358024691357,0)" xlink:href="#E"/><use transform="matrix(0.09753086419753083,0,0,0.09753086419753083,54.51975308641973,0)" xlink:href="#K"/><use transform="matrix(0.09753086419753083,0,0,0.09753086419753083,74.0259259259259,0)" xlink:href="#K"/><use transform="matrix(0.09753086419753083,0,0,0.09753086419753083,93.53209876543207,0)" xlink:href="#L"/></g><path fill="#a9afb8" d="M24 0v-248h52V0H24" id="M"/><path fill="#a9afb8" d="M135-194c53 0 70 44 70 98 0 56-19 98-73 100-31 1-45-17-59-34 3 33 2 69 2 105H25l-1-265h48c2 10 0 23 3 31 11-24 29-35 60-35zM114-30c33 0 39-31 40-66 0-38-9-64-40-64-56 0-55 130 0 130" id="N"/><path fill="#a9afb8" d="M114-157C55-157 80-60 75 0H25v-261h50l-1 109c12-26 28-41 61-42 86-1 58 113 63 194h-50c-7-57 23-157-34-157" id="O"/><path fill="#a9afb8" d="M110-194c64 0 96 36 96 99 0 64-35 99-97 99-61 0-95-36-95-99 0-62 34-99 96-99zm-1 164c35 0 45-28 45-65 0-40-10-65-43-65-34 0-45 26-45 65 0 36 10 65 43 65" id="P"/><path fill="#a9afb8" d="M135-194c87-1 58 113 63 194h-50c-7-57 23-157-34-157-59 0-34 97-39 157H25l-1-190h47c2 12-1 28 3 38 12-26 28-41 61-42" id="Q"/><g id="c"><use transform="matrix(0.09753086419753083,0,0,0.09753086419753083,0,0)" xlink:href="#M"/><use transform="matrix(0.09753086419753083,0,0,0.09753086419753083,9.753086419753084,0)" xlink:href="#N"/><use transform="matrix(0.09753086419753083,0,0,0.09753086419753083,31.112345679012336,0)" xlink:href="#O"/><use transform="matrix(0.09753086419753083,0,0,0.09753086419753083,52.47160493827159,0)" xlink:href="#P"/><use transform="matrix(0.09753086419753083,0,0,0.09753086419753083,73.83086419753084,0)" xlink:href="#Q"/><use transform="matrix(0.09753086419753083,0,0,0.09753086419753083,95.1901234567901,0)" xlink:href="#L"/></g><path fill="#a9afb8" d="M143 4C61 4 22-44 18-125c-5-107 100-154 193-111 17 8 29 25 37 43l-32 9c-13-25-37-40-76-40-61 0-88 39-88 99 0 61 29 100 91 101 35 0 62-11 79-27v-45h-74v-28h105v86C228-13 192 4 143 4" id="R"/><path fill="#a9afb8" d="M84 4C-5 8 30-112 23-190h32v120c0 31 7 50 39 49 72-2 45-101 50-169h31l1 190h-30c-1-10 1-25-2-33-11 22-28 36-60 37" id="S"/><path fill="#a9afb8" d="M24-231v-30h32v30H24zM24 0v-190h32V0H24" id="T"/><path fill="#a9afb8" d="M24 0v-261h32V0H24" id="U"/><path fill="#a9afb8" d="M106-169C34-169 62-67 57 0H25v-261h32l-1 103c12-21 28-36 61-36 89 0 53 116 60 194h-32v-121c2-32-8-49-39-48" id="V"/><path fill="#a9afb8" d="M100-194c63 0 86 42 84 106H49c0 40 14 67 53 68 26 1 43-12 49-29l28 8c-11 28-37 45-77 45C44 4 14-33 15-96c1-61 26-98 85-98zm52 81c6-60-76-77-97-28-3 7-6 17-6 28h103" id="W"/><path fill="#a9afb8" d="M114-163C36-179 61-72 57 0H25l-1-190h30c1 12-1 29 2 39 6-27 23-49 58-41v29" id="X"/><path fill="#a9afb8" d="M210-169c-67 3-38 105-44 169h-31v-121c0-29-5-50-35-48C34-165 62-65 56 0H25l-1-190h30c1 10-1 24 2 32 10-44 99-50 107 0 11-21 27-35 58-36 85-2 47 119 55 194h-31v-121c0-29-5-49-35-48" id="Y"/><g id="d"><use transform="matrix(0.0671810699588477,0,0,0.0671810699588477,0,0)" xlink:href="#R"/><use transform="matrix(0.0671810699588477,0,0,0.0671810699588477,18.81069958847736,0)" xlink:href="#S"/><use transform="matrix(0.0671810699588477,0,0,0.0671810699588477,32.2469135802469,0)" xlink:href="#T"/><use transform="matrix(0.0671810699588477,0,0,0.0671810699588477,37.55421810699587,0)" xlink:href="#U"/><use transform="matrix(0.0671810699588477,0,0,0.0671810699588477,42.86152263374484,0)" xlink:href="#V"/><use transform="matrix(0.0671810699588477,0,0,0.0671810699588477,56.29773662551438,0)" xlink:href="#W"/><use transform="matrix(0.0671810699588477,0,0,0.0671810699588477,69.73395061728392,0)" xlink:href="#X"/><use transform="matrix(0.0671810699588477,0,0,0.0671810699588477,77.7284979423868,0)" xlink:href="#Y"/><use transform="matrix(0.0671810699588477,0,0,0.0671810699588477,97.81563786008226,0)" xlink:href="#W"/></g><path fill="#a9afb8" d="M240 0l2-218c-23 76-54 145-80 218h-23L58-218 59 0H30v-248h44l77 211c21-75 51-140 76-211h43V0h-30" id="Z"/><path fill="#a9afb8" d="M100-194c62-1 85 37 85 99 1 63-27 99-86 99S16-35 15-95c0-66 28-99 85-99zM99-20c44 1 53-31 53-75 0-43-8-75-51-75s-53 32-53 75 10 74 51 75" id="aa"/><path fill="#a9afb8" d="M117-194c89-4 53 116 60 194h-32v-121c0-31-8-49-39-48C34-167 62-67 57 0H25l-1-190h30c1 10-1 24 2 32 11-22 29-35 61-36" id="ab"/><path fill="#a9afb8" d="M135-143c-3-34-86-38-87 0 15 53 115 12 119 90S17 21 10-45l28-5c4 36 97 45 98 0-10-56-113-15-118-90-4-57 82-63 122-42 12 7 21 19 24 35" id="ac"/><path fill="#a9afb8" d="M141-36C126-15 110 5 73 4 37 3 15-17 15-53c-1-64 63-63 125-63 3-35-9-54-41-54-24 1-41 7-42 31l-33-3c5-37 33-52 76-52 45 0 72 20 72 64v82c-1 20 7 32 28 27v20c-31 9-61-2-59-35zM48-53c0 20 12 33 32 33 41-3 63-29 60-74-43 2-92-5-92 41" id="ad"/><g id="e"><use transform="matrix(0.0671810699588477,0,0,0.0671810699588477,0,0)" xlink:href="#Z"/><use transform="matrix(0.0671810699588477,0,0,0.0671810699588477,20.087139917695463,0)" xlink:href="#aa"/><use transform="matrix(0.0671810699588477,0,0,0.0671810699588477,33.523353909465,0)" xlink:href="#ab"/><use transform="matrix(0.0671810699588477,0,0,0.0671810699588477,46.95956790123454,0)" xlink:href="#ac"/><use transform="matrix(0.0671810699588477,0,0,0.0671810699588477,59.05216049382713,0)" xlink:href="#ad"/><use transform="matrix(0.0671810699588477,0,0,0.0671810699588477,72.48837448559667,0)" xlink:href="#ab"/><use transform="matrix(0.0671810699588477,0,0,0.0671810699588477,85.9245884773662,0)" xlink:href="#T"/></g><path fill="#a9afb8" d="M32 76v-337h29V76H32" id="ae"/><use transform="matrix(0.0671810699588477,0,0,0.0671810699588477,0,0)" xlink:href="#ae" id="f"/><path fill="#a9afb8" d="M185-189c-5-48-123-54-124 2 14 75 158 14 163 119 3 78-121 87-175 55-17-10-28-26-33-46l33-7c5 56 141 63 141-1 0-78-155-14-162-118-5-82 145-84 179-34 5 7 8 16 11 25" id="af"/><path fill="#a9afb8" d="M115-194c55 1 70 41 70 98S169 2 115 4C84 4 66-9 55-30l1 105H24l-1-265h31l2 30c10-21 28-34 59-34zm-8 174c40 0 45-34 45-75s-6-73-45-74c-42 0-51 32-51 76 0 43 10 73 51 73" id="ag"/><path fill="#a9afb8" d="M59-47c-2 24 18 29 38 22v24C64 9 27 4 27-40v-127H5v-23h24l9-43h21v43h35v23H59v120" id="ah"/><path fill="#a9afb8" d="M115-194c53 0 69 39 70 98 0 66-23 100-70 100C84 3 66-7 56-30L54 0H23l1-261h32v101c10-23 28-34 59-34zm-8 174c40 0 45-34 45-75 0-40-5-75-45-74-42 0-51 32-51 76 0 43 10 73 51 73" id="ai"/><g id="g"><use transform="matrix(0.0671810699588477,0,0,0.0671810699588477,0,0)" xlink:href="#af"/><use transform="matrix(0.0671810699588477,0,0,0.0671810699588477,16.12345679012345,0)" xlink:href="#W"/><use transform="matrix(0.0671810699588477,0,0,0.0671810699588477,29.55967078189299,0)" xlink:href="#ag"/><use transform="matrix(0.0671810699588477,0,0,0.0671810699588477,42.99588477366253,0)" xlink:href="#ah"/><use transform="matrix(0.0671810699588477,0,0,0.0671810699588477,49.7139917695473,0)" xlink:href="#W"/><use transform="matrix(0.0671810699588477,0,0,0.0671810699588477,63.15020576131685,0)" xlink:href="#Y"/><use transform="matrix(0.0671810699588477,0,0,0.0671810699588477,83.23734567901231,0)" xlink:href="#ai"/><use transform="matrix(0.0671810699588477,0,0,0.0671810699588477,96.67355967078184,0)" xlink:href="#W"/><use transform="matrix(0.0671810699588477,0,0,0.0671810699588477,110.10977366255139,0)" xlink:href="#X"/></g><path fill="#a9afb8" d="M27 0v-27h64v-190l-56 39v-29l58-41h29v221h61V0H27" id="aj"/><path fill="#a9afb8" d="M101-251c68 0 85 55 85 127S166 4 100 4C33 4 14-52 14-124c0-73 17-127 87-127zm-1 229c47 0 54-49 54-102s-4-102-53-102c-51 0-55 48-55 102 0 53 5 102 54 102" id="ak"/><path fill="#a9afb8" d="M68-38c1 34 0 65-14 84H32c9-13 17-26 17-46H33v-38h35" id="al"/><g id="h"><use transform="matrix(0.0671810699588477,0,0,0.0671810699588477,0,0)" xlink:href="#aj"/><use transform="matrix(0.0671810699588477,0,0,0.0671810699588477,13.436213991769542,0)" xlink:href="#ak"/><use transform="matrix(0.0671810699588477,0,0,0.0671810699588477,26.872427983539083,0)" xlink:href="#al"/></g><path fill="#a9afb8" d="M101-251c82-7 93 87 43 132L82-64C71-53 59-42 53-27h129V0H18c2-99 128-94 128-182 0-28-16-43-45-43s-46 15-49 41l-32-3c6-41 34-60 81-64" id="am"/><path fill="#a9afb8" d="M155-56V0h-30v-56H8v-25l114-167h33v167h35v25h-35zm-30-156c-27 46-58 90-88 131h88v-131" id="an"/><g id="i"><use transform="matrix(0.0671810699588477,0,0,0.0671810699588477,0,0)" xlink:href="#am"/><use transform="matrix(0.0671810699588477,0,0,0.0671810699588477,13.436213991769542,0)" xlink:href="#ak"/><use transform="matrix(0.0671810699588477,0,0,0.0671810699588477,26.872427983539083,0)" xlink:href="#am"/><use transform="matrix(0.0671810699588477,0,0,0.0671810699588477,40.308641975308625,0)" xlink:href="#an"/></g><path d="M15-91v-56l181-69v40L49-119l147 57v40" id="ao"/><path d="M25-224v-37h50v37H25zM25 0v-190h50V0H25" id="ap"/><path d="M135-194c87-1 58 113 63 194h-50c-7-57 23-157-34-157-59 0-34 97-39 157H25l-1-190h47c2 12-1 28 3 38 12-26 28-41 61-42" id="aq"/><path d="M115-3C79 11 28 4 28-45v-112H4v-33h27l15-45h31v45h36v33H77v99c-1 23 16 31 38 25v30" id="ar"/><path d="M185-48c-13 30-37 53-82 52C43 2 14-33 14-96s30-98 90-98c62 0 83 45 84 108H66c0 31 8 55 39 56 18 0 30-7 34-22zm-45-69c5-46-57-63-70-21-2 6-4 13-4 21h74" id="as"/><path d="M135-150c-39-12-60 13-60 57V0H25l-1-190h47c2 13-1 29 3 40 6-28 27-53 61-41v41" id="at"/><path d="M121-226c-27-7-43 5-38 36h38v33H83V0H34v-157H6v-33h28c-9-59 32-81 87-68v32" id="au"/><path d="M133-34C117-15 103 5 69 4 32 3 11-16 11-54c-1-60 55-63 116-61 1-26-3-47-28-47-18 1-26 9-28 27l-52-2c7-38 36-58 82-57s74 22 75 68l1 82c-1 14 12 18 25 15v27c-30 8-71 5-69-32zm-48 3c29 0 43-24 42-57-32 0-66-3-65 30 0 17 8 27 23 27" id="av"/><path d="M190-63c-7 42-38 67-86 67-59 0-84-38-90-98-12-110 154-137 174-36l-49 2c-2-19-15-32-35-32-30 0-35 28-38 64-6 74 65 87 74 30" id="aw"/><path d="M15-22v-40l146-57-146-57v-40l181 69v56" id="ax"/><g id="j"><use transform="matrix(0.07469135802469135,0,0,0.07469135802469135,0,0)" xlink:href="#ao"/><use transform="matrix(0.07469135802469135,0,0,0.07469135802469135,15.685185185185183,0)" xlink:href="#ao"/><use transform="matrix(0.07469135802469135,0,0,0.07469135802469135,31.370370370370367,0)" xlink:href="#ap"/><use transform="matrix(0.07469135802469135,0,0,0.07469135802469135,38.8395061728395,0)" xlink:href="#aq"/><use transform="matrix(0.07469135802469135,0,0,0.07469135802469135,55.19691358024689,0)" xlink:href="#ar"/><use transform="matrix(0.07469135802469135,0,0,0.07469135802469135,64.08518518518517,0)" xlink:href="#as"/><use transform="matrix(0.07469135802469135,0,0,0.07469135802469135,79.02345679012343,0)" xlink:href="#at"/><use transform="matrix(0.07469135802469135,0,0,0.07469135802469135,89.48024691358022,0)" xlink:href="#au"/><use transform="matrix(0.07469135802469135,0,0,0.07469135802469135,98.36851851851848,0)" xlink:href="#av"/><use transform="matrix(0.07469135802469135,0,0,0.07469135802469135,113.30679012345675,0)" xlink:href="#aw"/><use transform="matrix(0.07469135802469135,0,0,0.07469135802469135,128.24506172839503,0)" xlink:href="#as"/><use transform="matrix(0.07469135802469135,0,0,0.07469135802469135,143.1833333333333,0)" xlink:href="#ax"/><use transform="matrix(0.07469135802469135,0,0,0.07469135802469135,158.8685185185185,0)" xlink:href="#ax"/></g><path d="M240-174c0 40-23 61-54 70L253 0h-59l-57-94H76V0H24v-248c93 4 217-23 216 74zM76-134c48-2 112 12 112-38 0-48-66-32-112-35v73" id="ay"/><path d="M135-194c53 0 70 44 70 98 0 56-19 98-73 100-31 1-45-17-59-34 3 33 2 69 2 105H25l-1-265h48c2 10 0 23 3 31 11-24 29-35 60-35zM114-30c33 0 39-31 40-66 0-38-9-64-40-64-56 0-55 130 0 130" id="az"/><path d="M110-194c64 0 96 36 96 99 0 64-35 99-97 99-61 0-95-36-95-99 0-62 34-99 96-99zm-1 164c35 0 45-28 45-65 0-40-10-65-43-65-34 0-45 26-45 65 0 36 10 65 43 65" id="aA"/><path d="M88-194c31-1 46 15 58 34l-1-101h50l1 261h-48c-2-10 0-23-3-31C134-8 116 4 84 4 32 4 16-41 15-95c0-56 19-97 73-99zm17 164c33 0 40-30 41-66 1-37-9-64-41-64s-38 30-39 65c0 43 13 65 39 65" id="aB"/><path d="M85 4C-2 5 27-109 22-190h50c7 57-23 150 33 157 60-5 35-97 40-157h50l1 190h-47c-2-12 1-28-3-38-12 25-28 42-61 42" id="aC"/><path d="M230 0l2-204L168 0h-37L68-204 70 0H24v-248h70l56 185 57-185h69V0h-46" id="aD"/><path d="M137-138c1-29-70-34-71-4 15 46 118 7 119 86 1 83-164 76-172 9l43-7c4 19 20 25 44 25 33 8 57-30 24-41C81-84 22-81 20-136c-2-80 154-74 161-7" id="aE"/><path d="M25 0v-261h50V0H25" id="aF"/><g id="k"><use transform="matrix(0.07469135802469135,0,0,0.07469135802469135,0,0)" xlink:href="#ay"/><use transform="matrix(0.07469135802469135,0,0,0.07469135802469135,19.34506172839506,0)" xlink:href="#as"/><use transform="matrix(0.07469135802469135,0,0,0.07469135802469135,34.28333333333333,0)" xlink:href="#az"/><use transform="matrix(0.07469135802469135,0,0,0.07469135802469135,50.64074074074074,0)" xlink:href="#at"/><use transform="matrix(0.07469135802469135,0,0,0.07469135802469135,61.09753086419752,0)" xlink:href="#aA"/><use transform="matrix(0.07469135802469135,0,0,0.07469135802469135,77.45493827160493,0)" xlink:href="#aB"/><use transform="matrix(0.07469135802469135,0,0,0.07469135802469135,93.81234567901232,0)" xlink:href="#aC"/><use transform="matrix(0.07469135802469135,0,0,0.07469135802469135,110.16975308641975,0)" xlink:href="#ar"/><use transform="matrix(0.07469135802469135,0,0,0.07469135802469135,119.05802469135803,0)" xlink:href="#aA"/><use transform="matrix(0.07469135802469135,0,0,0.07469135802469135,135.41543209876542,0)" xlink:href="#at"/><use transform="matrix(0.07469135802469135,0,0,0.07469135802469135,145.8722222222222,0)" xlink:href="#aD"/><use transform="matrix(0.07469135802469135,0,0,0.07469135802469135,168.20493827160493,0)" xlink:href="#aC"/><use transform="matrix(0.07469135802469135,0,0,0.07469135802469135,184.56234567901234,0)" xlink:href="#aE"/><use transform="matrix(0.07469135802469135,0,0,0.07469135802469135,199.50061728395062,0)" xlink:href="#ap"/><use transform="matrix(0.07469135802469135,0,0,0.07469135802469135,206.96975308641976,0)" xlink:href="#aw"/><use transform="matrix(0.07469135802469135,0,0,0.07469135802469135,221.908024691358,0)" xlink:href="#av"/><use transform="matrix(0.07469135802469135,0,0,0.07469135802469135,236.84629629629632,0)" xlink:href="#aF"/></g><path d="M118-107v75H92v-75H18v-26h74v-75h26v75h74v26h-74" id="aG"/><use transform="matrix(0.06234567901234565,0,0,0.06234567901234565,0,0)" xlink:href="#aG" id="l"/><path d="M59-47c-2 24 18 29 38 22v24C64 9 27 4 27-40v-127H5v-23h24l9-43h21v43h35v23H59v120" id="aH"/><path d="M100-194c62-1 85 37 85 99 1 63-27 99-86 99S16-35 15-95c0-66 28-99 85-99zM99-20c44 1 53-31 53-75 0-43-8-75-51-75s-53 32-53 75 10 74 51 75" id="aI"/><path d="M96-169c-40 0-48 33-48 73s9 75 48 75c24 0 41-14 43-38l32 2c-6 37-31 61-74 61-59 0-76-41-82-99-10-93 101-131 147-64 4 7 5 14 7 22l-32 3c-4-21-16-35-41-35" id="aJ"/><path d="M141-36C126-15 110 5 73 4 37 3 15-17 15-53c-1-64 63-63 125-63 3-35-9-54-41-54-24 1-41 7-42 31l-33-3c5-37 33-52 76-52 45 0 72 20 72 64v82c-1 20 7 32 28 27v20c-31 9-61-2-59-35zM48-53c0 20 12 33 32 33 41-3 63-29 60-74-43 2-92-5-92 41" id="aK"/><path d="M114-163C36-179 61-72 57 0H25l-1-190h30c1 12-1 29 2 39 6-27 23-49 58-41v29" id="aL"/><path d="M87 75C49 33 22-17 22-94c0-76 28-126 65-167h31c-38 41-64 92-64 168S80 34 118 75H87" id="aM"/><path d="M33-261c38 41 65 92 65 168S71 34 33 75H2C39 34 66-17 66-93S39-220 2-261h31" id="aN"/><g id="m"><use transform="matrix(0.06234567901234565,0,0,0.06234567901234565,0,0)" xlink:href="#aH"/><use transform="matrix(0.06234567901234565,0,0,0.06234567901234565,6.234567901234565,0)" xlink:href="#aI"/><use transform="matrix(0.06234567901234565,0,0,0.06234567901234565,18.703703703703695,0)" xlink:href="#aJ"/><use transform="matrix(0.06234567901234565,0,0,0.06234567901234565,29.925925925925913,0)" xlink:href="#aK"/><use transform="matrix(0.06234567901234565,0,0,0.06234567901234565,42.39506172839504,0)" xlink:href="#aL"/><use transform="matrix(0.06234567901234565,0,0,0.06234567901234565,49.81419753086418,0)" xlink:href="#aM"/><use transform="matrix(0.06234567901234565,0,0,0.06234567901234565,57.23333333333331,0)" xlink:href="#aN"/></g><path d="M115-194c55 1 70 41 70 98S169 2 115 4C84 4 66-9 55-30l1 105H24l-1-265h31l2 30c10-21 28-34 59-34zm-8 174c40 0 45-34 45-75s-6-73-45-74c-42 0-51 32-51 76 0 43 10 73 51 73" id="aO"/><path d="M84 4C-5 8 30-112 23-190h32v120c0 31 7 50 39 49 72-2 45-101 50-169h31l1 190h-30c-1-10 1-25-2-33-11 22-28 36-60 37" id="aP"/><path d="M135-143c-3-34-86-38-87 0 15 53 115 12 119 90S17 21 10-45l28-5c4 36 97 45 98 0-10-56-113-15-118-90-4-57 82-63 122-42 12 7 21 19 24 35" id="aQ"/><g id="n"><use transform="matrix(0.06234567901234565,0,0,0.06234567901234565,0,0)" xlink:href="#aO"/><use transform="matrix(0.06234567901234565,0,0,0.06234567901234565,12.46913580246913,0)" xlink:href="#aK"/><use transform="matrix(0.06234567901234565,0,0,0.06234567901234565,24.93827160493826,0)" xlink:href="#aP"/><use transform="matrix(0.06234567901234565,0,0,0.06234567901234565,37.40740740740739,0)" xlink:href="#aQ"/><use transform="matrix(0.06234567901234565,0,0,0.06234567901234565,48.629629629629605,0)" xlink:href="#aK"/><use transform="matrix(0.06234567901234565,0,0,0.06234567901234565,61.09876543209874,0)" xlink:href="#aL"/><use transform="matrix(0.06234567901234565,0,0,0.06234567901234565,68.51790123456787,0)" xlink:href="#aM"/><use transform="matrix(0.06234567901234565,0,0,0.06234567901234565,75.937037037037,0)" xlink:href="#aN"/></g><path d="M100-194c63 0 86 42 84 106H49c0 40 14 67 53 68 26 1 43-12 49-29l28 8c-11 28-37 45-77 45C44 4 14-33 15-96c1-61 26-98 85-98zm52 81c6-60-76-77-97-28-3 7-6 17-6 28h103" id="aR"/><path d="M24 0v-261h32V0H24" id="aS"/><path d="M24-231v-30h32v30H24zM24 0v-190h32V0H24" id="aT"/><path d="M117-194c89-4 53 116 60 194h-32v-121c0-31-8-49-39-48C34-167 62-67 57 0H25l-1-190h30c1 10-1 24 2 32 11-22 29-35 61-36" id="aU"/><path d="M240 0l2-218c-23 76-54 145-80 218h-23L58-218 59 0H30v-248h44l77 211c21-75 51-140 76-211h43V0h-30" id="aV"/><path d="M185-189c-5-48-123-54-124 2 14 75 158 14 163 119 3 78-121 87-175 55-17-10-28-26-33-46l33-7c5 56 141 63 141-1 0-78-155-14-162-118-5-82 145-84 179-34 5 7 8 16 11 25" id="aW"/><path d="M177-190C167-65 218 103 67 71c-23-6-38-20-44-43l32-5c15 47 100 32 89-28v-30C133-14 115 1 83 1 29 1 15-40 15-95c0-56 16-97 71-98 29-1 48 16 59 35 1-10 0-23 2-32h30zM94-22c36 0 50-32 50-73 0-42-14-75-50-75-39 0-46 34-46 75s6 73 46 73" id="aX"/><g id="o"><use transform="matrix(0.06234567901234565,0,0,0.06234567901234565,0,0)" xlink:href="#aQ"/><use transform="matrix(0.06234567901234565,0,0,0.06234567901234565,11.222222222222218,0)" xlink:href="#aR"/><use transform="matrix(0.06234567901234565,0,0,0.06234567901234565,23.691358024691347,0)" xlink:href="#aS"/><use transform="matrix(0.06234567901234565,0,0,0.06234567901234565,28.616666666666653,0)" xlink:href="#aR"/><use transform="matrix(0.06234567901234565,0,0,0.06234567901234565,41.085802469135785,0)" xlink:href="#aJ"/><use transform="matrix(0.06234567901234565,0,0,0.06234567901234565,52.308024691358,0)" xlink:href="#aT"/><use transform="matrix(0.06234567901234565,0,0,0.06234567901234565,57.233333333333306,0)" xlink:href="#aI"/><use transform="matrix(0.06234567901234565,0,0,0.06234567901234565,69.70246913580243,0)" xlink:href="#aU"/><use transform="matrix(0.06234567901234565,0,0,0.06234567901234565,82.17160493827156,0)" xlink:href="#aK"/><use transform="matrix(0.06234567901234565,0,0,0.06234567901234565,94.64074074074068,0)" xlink:href="#aL"/><use transform="matrix(0.06234567901234565,0,0,0.06234567901234565,102.05987654320981,0)" xlink:href="#aV"/><use transform="matrix(0.06234567901234565,0,0,0.06234567901234565,120.70123456790117,0)" xlink:href="#aP"/><use transform="matrix(0.06234567901234565,0,0,0.06234567901234565,133.1703703703703,0)" xlink:href="#aQ"/><use transform="matrix(0.06234567901234565,0,0,0.06234567901234565,144.39259259259254,0)" xlink:href="#aT"/><use transform="matrix(0.06234567901234565,0,0,0.06234567901234565,149.31790123456784,0)" xlink:href="#aJ"/><use transform="matrix(0.06234567901234565,0,0,0.06234567901234565,160.54012345679007,0)" xlink:href="#aK"/><use transform="matrix(0.06234567901234565,0,0,0.06234567901234565,173.0092592592592,0)" xlink:href="#aM"/><use transform="matrix(0.06234567901234565,0,0,0.06234567901234565,180.42839506172834,0)" xlink:href="#aW"/><use transform="matrix(0.06234567901234565,0,0,0.06234567901234565,195.3913580246913,0)" xlink:href="#aH"/><use transform="matrix(0.06234567901234565,0,0,0.06234567901234565,201.62592592592586,0)" xlink:href="#aL"/><use transform="matrix(0.06234567901234565,0,0,0.06234567901234565,209.04506172839498,0)" xlink:href="#aT"/><use transform="matrix(0.06234567901234565,0,0,0.06234567901234565,213.9703703703703,0)" xlink:href="#aU"/><use transform="matrix(0.06234567901234565,0,0,0.06234567901234565,226.43950617283943,0)" xlink:href="#aX"/></g><path d="M210-169c-67 3-38 105-44 169h-31v-121c0-29-5-50-35-48C34-165 62-65 56 0H25l-1-190h30c1 10-1 24 2 32 10-44 99-50 107 0 11-21 27-35 58-36 85-2 47 119 55 194h-31v-121c0-29-5-49-35-48" id="aY"/><g id="p"><use transform="matrix(0.06234567901234565,0,0,0.06234567901234565,0,0)" xlink:href="#aY"/><use transform="matrix(0.06234567901234565,0,0,0.06234567901234565,18.64135802469135,0)" xlink:href="#aP"/><use transform="matrix(0.06234567901234565,0,0,0.06234567901234565,31.110493827160482,0)" xlink:href="#aQ"/><use transform="matrix(0.06234567901234565,0,0,0.06234567901234565,42.3327160493827,0)" xlink:href="#aT"/><use transform="matrix(0.06234567901234565,0,0,0.06234567901234565,47.258024691358,0)" xlink:href="#aJ"/><use transform="matrix(0.06234567901234565,0,0,0.06234567901234565,58.48024691358022,0)" xlink:href="#aK"/><use transform="matrix(0.06234567901234565,0,0,0.06234567901234565,70.94938271604934,0)" xlink:href="#aN"/></g><path d="M199 0l-22-63H83L61 0H9l90-248h61L250 0h-51zm-33-102l-36-108c-10 38-24 72-36 108h72" id="aZ"/><path d="M114-157C55-157 80-60 75 0H25v-261h50l-1 109c12-26 28-41 61-42 86-1 58 113 63 194h-50c-7-57 23-157-34-157" id="ba"/><path d="M136-208V0H84v-208H4v-40h212v40h-80" id="bb"/><g id="q"><use transform="matrix(0.07469135802469135,0,0,0.07469135802469135,0,0)" xlink:href="#aZ"/><use transform="matrix(0.07469135802469135,0,0,0.07469135802469135,19.34506172839506,0)" xlink:href="#az"/><use transform="matrix(0.07469135802469135,0,0,0.07469135802469135,35.70246913580246,0)" xlink:href="#av"/><use transform="matrix(0.07469135802469135,0,0,0.07469135802469135,50.640740740740725,0)" xlink:href="#at"/><use transform="matrix(0.07469135802469135,0,0,0.07469135802469135,61.09753086419751,0)" xlink:href="#as"/><use transform="matrix(0.07469135802469135,0,0,0.07469135802469135,76.03580246913577,0)" xlink:href="#aF"/><use transform="matrix(0.07469135802469135,0,0,0.07469135802469135,83.50493827160491,0)" xlink:href="#ba"/><use transform="matrix(0.07469135802469135,0,0,0.07469135802469135,99.86234567901234,0)" xlink:href="#aA"/><use transform="matrix(0.07469135802469135,0,0,0.07469135802469135,116.21975308641973,0)" xlink:href="#bb"/><use transform="matrix(0.07469135802469135,0,0,0.07469135802469135,130.56049382716046,0)" xlink:href="#as"/><use transform="matrix(0.07469135802469135,0,0,0.07469135802469135,145.49876543209874,0)" xlink:href="#aF"/><use transform="matrix(0.07469135802469135,0,0,0.07469135802469135,152.96790123456788,0)" xlink:href="#as"/><use transform="matrix(0.07469135802469135,0,0,0.07469135802469135,167.90617283950616,0)" xlink:href="#au"/><use transform="matrix(0.07469135802469135,0,0,0.07469135802469135,176.79444444444442,0)" xlink:href="#aA"/><use transform="matrix(0.07469135802469135,0,0,0.07469135802469135,193.15185185185183,0)" xlink:href="#aq"/><use transform="matrix(0.07469135802469135,0,0,0.07469135802469135,209.50925925925924,0)" xlink:href="#ap"/><use transform="matrix(0.07469135802469135,0,0,0.07469135802469135,216.9783950617284,0)" xlink:href="#aw"/><use transform="matrix(0.07469135802469135,0,0,0.07469135802469135,231.91666666666666,0)" xlink:href="#aA"/></g><g id="r"><use transform="matrix(0.06234567901234565,0,0,0.06234567901234565,0,0)" xlink:href="#aS"/><use transform="matrix(0.06234567901234565,0,0,0.06234567901234565,4.925308641975307,0)" xlink:href="#aT"/><use transform="matrix(0.06234567901234565,0,0,0.06234567901234565,9.850617283950614,0)" xlink:href="#aX"/><use transform="matrix(0.06234567901234565,0,0,0.06234567901234565,22.319753086419745,0)" xlink:href="#aK"/><use transform="matrix(0.06234567901234565,0,0,0.06234567901234565,34.78888888888888,0)" xlink:href="#aL"/><use transform="matrix(0.06234567901234565,0,0,0.06234567901234565,42.20802469135801,0)" xlink:href="#aM"/><use transform="matrix(0.06234567901234565,0,0,0.06234567901234565,49.62716049382715,0)" xlink:href="#aW"/><use transform="matrix(0.06234567901234565,0,0,0.06234567901234565,64.59012345679011,0)" xlink:href="#aH"/><use transform="matrix(0.06234567901234565,0,0,0.06234567901234565,70.82469135802468,0)" xlink:href="#aL"/><use transform="matrix(0.06234567901234565,0,0,0.06234567901234565,78.24382716049381,0)" xlink:href="#aT"/><use transform="matrix(0.06234567901234565,0,0,0.06234567901234565,83.16913580246911,0)" xlink:href="#aU"/><use transform="matrix(0.06234567901234565,0,0,0.06234567901234565,95.63827160493824,0)" xlink:href="#aX"/></g><g id="s"><use transform="matrix(0.06234567901234565,0,0,0.06234567901234565,0,0)" xlink:href="#aU"/><use transform="matrix(0.06234567901234565,0,0,0.06234567901234565,12.46913580246913,0)" xlink:href="#aP"/><use transform="matrix(0.06234567901234565,0,0,0.06234567901234565,24.93827160493826,0)" xlink:href="#aY"/><use transform="matrix(0.06234567901234565,0,0,0.06234567901234565,43.57962962962961,0)" xlink:href="#aR"/><use transform="matrix(0.06234567901234565,0,0,0.06234567901234565,56.04876543209874,0)" xlink:href="#aL"/><use transform="matrix(0.06234567901234565,0,0,0.06234567901234565,63.467901234567876,0)" xlink:href="#aI"/><use transform="matrix(0.06234567901234565,0,0,0.06234567901234565,75.937037037037,0)" xlink:href="#aN"/></g><path d="M85-194c31 0 48 13 60 33l-1-100h32l1 261h-30c-2-10 0-23-3-31C134-8 116 4 85 4 32 4 16-35 15-94c0-66 23-100 70-100zm9 24c-40 0-46 34-46 75 0 40 6 74 45 74 42 0 51-32 51-76 0-42-9-74-50-73" id="bc"/><g id="t"><use transform="matrix(0.06234567901234565,0,0,0.06234567901234565,0,0)" xlink:href="#aK"/><use transform="matrix(0.06234567901234565,0,0,0.06234567901234565,12.46913580246913,0)" xlink:href="#aH"/><use transform="matrix(0.06234567901234565,0,0,0.06234567901234565,18.703703703703695,0)" xlink:href="#aR"/><use transform="matrix(0.06234567901234565,0,0,0.06234567901234565,31.172839506172828,0)" xlink:href="#aU"/><use transform="matrix(0.06234567901234565,0,0,0.06234567901234565,43.64197530864196,0)" xlink:href="#bc"/><use transform="matrix(0.06234567901234565,0,0,0.06234567901234565,56.11111111111109,0)" xlink:href="#aR"/><use transform="matrix(0.06234567901234565,0,0,0.06234567901234565,68.58024691358023,0)" xlink:href="#aL"/><use transform="matrix(0.06234567901234565,0,0,0.06234567901234565,75.99938271604935,0)" xlink:href="#aM"/><use transform="matrix(0.06234567901234565,0,0,0.06234567901234565,83.41851851851848,0)" xlink:href="#aN"/></g><path d="M212-179c-10-28-35-45-73-45-59 0-87 40-87 99 0 60 29 101 89 101 43 0 62-24 78-52l27 14C228-24 195 4 139 4 59 4 22-46 18-125c-6-104 99-153 187-111 19 9 31 26 39 46" id="bd"/><path d="M137 0h-34L2-248h35l83 218 83-218h36" id="be"/><path d="M9 0v-24l116-142H16v-24h144v24L44-24h123V0H9" id="bf"/><g id="u"><use transform="matrix(0.06234567901234565,0,0,0.06234567901234565,0,0)" xlink:href="#aT"/><use transform="matrix(0.06234567901234565,0,0,0.06234567901234565,4.925308641975307,0)" xlink:href="#aU"/><use transform="matrix(0.06234567901234565,0,0,0.06234567901234565,17.39444444444444,0)" xlink:href="#aT"/><use transform="matrix(0.06234567901234565,0,0,0.06234567901234565,22.319753086419745,0)" xlink:href="#aJ"/><use transform="matrix(0.06234567901234565,0,0,0.06234567901234565,33.541975308641966,0)" xlink:href="#aT"/><use transform="matrix(0.06234567901234565,0,0,0.06234567901234565,38.46728395061727,0)" xlink:href="#aK"/><use transform="matrix(0.06234567901234565,0,0,0.06234567901234565,50.936419753086405,0)" xlink:href="#aL"/><use transform="matrix(0.06234567901234565,0,0,0.06234567901234565,58.35555555555554,0)" xlink:href="#bd"/><use transform="matrix(0.06234567901234565,0,0,0.06234567901234565,74.50308641975306,0)" xlink:href="#aI"/><use transform="matrix(0.06234567901234565,0,0,0.06234567901234565,86.97222222222219,0)" xlink:href="#aL"/><use transform="matrix(0.06234567901234565,0,0,0.06234567901234565,94.39135802469131,0)" xlink:href="#aL"/><use transform="matrix(0.06234567901234565,0,0,0.06234567901234565,101.81049382716044,0)" xlink:href="#aR"/><use transform="matrix(0.06234567901234565,0,0,0.06234567901234565,114.27962962962957,0)" xlink:href="#aT"/><use transform="matrix(0.06234567901234565,0,0,0.06234567901234565,119.20493827160487,0)" xlink:href="#aI"/><use transform="matrix(0.06234567901234565,0,0,0.06234567901234565,131.674074074074,0)" xlink:href="#be"/><use transform="matrix(0.06234567901234565,0,0,0.06234567901234565,145.39012345679006,0)" xlink:href="#aI"/><use transform="matrix(0.06234567901234565,0,0,0.06234567901234565,157.8592592592592,0)" xlink:href="#bf"/><use transform="matrix(0.06234567901234565,0,0,0.06234567901234565,169.08148148148143,0)" xlink:href="#aM"/><use transform="matrix(0.06234567901234565,0,0,0.06234567901234565,176.50061728395056,0)" xlink:href="#aN"/></g><path d="M175 0L67-191c6 58 2 128 3 191H24v-248h59L193-55c-6-58-2-129-3-193h46V0h-61" id="bg"/><path d="M128 0H69L1-190h53L99-40l48-150h52" id="bh"/><path d="M195-6C206 82 75 100 31 46c-4-6-6-13-8-21l49-6c3 16 16 24 34 25 40 0 42-37 40-79-11 22-30 35-61 35-53 0-70-43-70-97 0-56 18-96 73-97 30 0 46 14 59 34l2-30h47zm-90-29c32 0 41-27 41-63 0-35-9-62-40-62-32 0-39 29-40 63 0 36 9 62 39 62" id="bi"/><path d="M24 0v-248h52V0H24" id="bj"/><g id="v"><use transform="matrix(0.07469135802469135,0,0,0.07469135802469135,0,0)" xlink:href="#bg"/><use transform="matrix(0.07469135802469135,0,0,0.07469135802469135,19.34506172839506,0)" xlink:href="#av"/><use transform="matrix(0.07469135802469135,0,0,0.07469135802469135,34.28333333333333,0)" xlink:href="#bh"/><use transform="matrix(0.07469135802469135,0,0,0.07469135802469135,49.2216049382716,0)" xlink:href="#as"/><use transform="matrix(0.07469135802469135,0,0,0.07469135802469135,64.15987654320986,0)" xlink:href="#bi"/><use transform="matrix(0.07469135802469135,0,0,0.07469135802469135,80.51728395061727,0)" xlink:href="#av"/><use transform="matrix(0.07469135802469135,0,0,0.07469135802469135,95.45555555555553,0)" xlink:href="#aB"/><use transform="matrix(0.07469135802469135,0,0,0.07469135802469135,111.81296296296294,0)" xlink:href="#aA"/><use transform="matrix(0.07469135802469135,0,0,0.07469135802469135,128.17037037037034,0)" xlink:href="#at"/><use transform="matrix(0.07469135802469135,0,0,0.07469135802469135,138.62716049382712,0)" xlink:href="#bj"/><use transform="matrix(0.07469135802469135,0,0,0.07469135802469135,146.09629629629626,0)" xlink:href="#aq"/><use transform="matrix(0.07469135802469135,0,0,0.07469135802469135,162.45370370370367,0)" xlink:href="#ar"/><use transform="matrix(0.07469135802469135,0,0,0.07469135802469135,171.34197530864193,0)" xlink:href="#as"/><use transform="matrix(0.07469135802469135,0,0,0.07469135802469135,186.2802469135802,0)" xlink:href="#at"/><use transform="matrix(0.07469135802469135,0,0,0.07469135802469135,196.737037037037,0)" xlink:href="#aq"/><use transform="matrix(0.07469135802469135,0,0,0.07469135802469135,213.0944444444444,0)" xlink:href="#as"/><use transform="matrix(0.07469135802469135,0,0,0.07469135802469135,228.03271604938269,0)" xlink:href="#ar"/></g><use transform="matrix(0.06234567901234563,0,0,0.06234567901234563,0,0)" xlink:href="#aG" id="w"/><path d="M141 0L90-78 38 0H4l68-98-65-92h35l48 74 47-74h35l-64 92 68 98h-35" id="bk"/><path d="M115-194c53 0 69 39 70 98 0 66-23 100-70 100C84 3 66-7 56-30L54 0H23l1-261h32v101c10-23 28-34 59-34zm-8 174c40 0 45-34 45-75 0-40-5-75-45-74-42 0-51 32-51 76 0 43 10 73 51 73" id="bl"/><path d="M30-248c87 1 191-15 191 75 0 78-77 80-158 76V0H30v-248zm33 125c57 0 124 11 124-50 0-59-68-47-124-48v98" id="bm"/><g id="x"><use transform="matrix(0.06234567901234563,0,0,0.06234567901234563,0,0)" xlink:href="#aR"/><use transform="matrix(0.06234567901234563,0,0,0.06234567901234563,12.469135802469127,0)" xlink:href="#bk"/><use transform="matrix(0.06234567901234563,0,0,0.06234567901234563,23.69135802469134,0)" xlink:href="#aT"/><use transform="matrix(0.06234567901234563,0,0,0.06234567901234563,28.616666666666646,0)" xlink:href="#bl"/><use transform="matrix(0.06234567901234563,0,0,0.06234567901234563,41.08580246913577,0)" xlink:href="#aT"/><use transform="matrix(0.06234567901234563,0,0,0.06234567901234563,46.01111111111108,0)" xlink:href="#aL"/><use transform="matrix(0.06234567901234563,0,0,0.06234567901234563,53.430246913580206,0)" xlink:href="#bm"/><use transform="matrix(0.06234567901234563,0,0,0.06234567901234563,68.39320987654315,0)" xlink:href="#aK"/><use transform="matrix(0.06234567901234563,0,0,0.06234567901234563,80.86234567901228,0)" xlink:href="#aX"/><use transform="matrix(0.06234567901234563,0,0,0.06234567901234563,93.3314814814814,0)" xlink:href="#aT"/><use transform="matrix(0.06234567901234563,0,0,0.06234567901234563,98.25679012345671,0)" xlink:href="#aU"/><use transform="matrix(0.06234567901234563,0,0,0.06234567901234563,110.72592592592584,0)" xlink:href="#aK"/><use transform="matrix(0.06234567901234563,0,0,0.06234567901234563,123.19506172839496,0)" xlink:href="#aM"/><use transform="matrix(0.06234567901234563,0,0,0.06234567901234563,130.6141975308641,0)" xlink:href="#aW"/><use transform="matrix(0.06234567901234563,0,0,0.06234567901234563,145.57716049382705,0)" xlink:href="#aH"/><use transform="matrix(0.06234567901234563,0,0,0.06234567901234563,151.8117283950616,0)" xlink:href="#aL"/><use transform="matrix(0.06234567901234563,0,0,0.06234567901234563,159.23086419753074,0)" xlink:href="#aT"/><use transform="matrix(0.06234567901234563,0,0,0.06234567901234563,164.15617283950604,0)" xlink:href="#aU"/><use transform="matrix(0.06234567901234563,0,0,0.06234567901234563,176.62530864197518,0)" xlink:href="#aX"/></g><g id="y"><use transform="matrix(0.06234567901234563,0,0,0.06234567901234563,0,0)" xlink:href="#aP"/><use transform="matrix(0.06234567901234563,0,0,0.06234567901234563,12.469135802469127,0)" xlink:href="#aL"/><use transform="matrix(0.06234567901234563,0,0,0.06234567901234563,19.888271604938257,0)" xlink:href="#aS"/><use transform="matrix(0.06234567901234563,0,0,0.06234567901234563,24.813580246913563,0)" xlink:href="#aN"/></g><path d="M190 0L58-211 59 0H30v-248h39L202-35l-2-213h31V0h-41" id="bn"/><path d="M108 0H70L1-190h34L89-25l56-165h34" id="bo"/><path d="M205 0l-28-72H64L36 0H1l101-248h38L239 0h-34zm-38-99l-47-123c-12 45-31 82-46 123h93" id="bp"/><g id="z"><use transform="matrix(0.06234567901234563,0,0,0.06234567901234563,0,0)" xlink:href="#aK"/><use transform="matrix(0.06234567901234563,0,0,0.06234567901234563,12.469135802469127,0)" xlink:href="#bc"/><use transform="matrix(0.06234567901234563,0,0,0.06234567901234563,24.938271604938254,0)" xlink:href="#aT"/><use transform="matrix(0.06234567901234563,0,0,0.06234567901234563,29.86358024691356,0)" xlink:href="#aJ"/><use transform="matrix(0.06234567901234563,0,0,0.06234567901234563,41.08580246913577,0)" xlink:href="#aT"/><use transform="matrix(0.06234567901234563,0,0,0.06234567901234563,46.01111111111108,0)" xlink:href="#aI"/><use transform="matrix(0.06234567901234563,0,0,0.06234567901234563,58.4802469135802,0)" xlink:href="#aU"/><use transform="matrix(0.06234567901234563,0,0,0.06234567901234563,70.94938271604933,0)" xlink:href="#aK"/><use transform="matrix(0.06234567901234563,0,0,0.06234567901234563,83.41851851851845,0)" xlink:href="#aL"/><use transform="matrix(0.06234567901234563,0,0,0.06234567901234563,90.83765432098758,0)" xlink:href="#bn"/><use transform="matrix(0.06234567901234563,0,0,0.06234567901234563,106.9851851851851,0)" xlink:href="#aI"/><use transform="matrix(0.06234567901234563,0,0,0.06234567901234563,119.45432098765423,0)" xlink:href="#bo"/><use transform="matrix(0.06234567901234563,0,0,0.06234567901234563,130.67654320987646,0)" xlink:href="#aK"/><use transform="matrix(0.06234567901234563,0,0,0.06234567901234563,143.1456790123456,0)" xlink:href="#bp"/><use transform="matrix(0.06234567901234563,0,0,0.06234567901234563,158.10864197530856,0)" xlink:href="#bl"/><use transform="matrix(0.06234567901234563,0,0,0.06234567901234563,170.5777777777777,0)" xlink:href="#aK"/><use transform="matrix(0.06234567901234563,0,0,0.06234567901234563,183.04691358024684,0)" xlink:href="#aM"/><use transform="matrix(0.06234567901234563,0,0,0.06234567901234563,190.46604938271597,0)" xlink:href="#aN"/></g><g id="A"><use transform="matrix(0.06234567901234563,0,0,0.06234567901234563,0,0)" xlink:href="#aK"/><use transform="matrix(0.06234567901234563,0,0,0.06234567901234563,12.469135802469127,0)" xlink:href="#aH"/><use transform="matrix(0.06234567901234563,0,0,0.06234567901234563,18.70370370370369,0)" xlink:href="#aP"/><use transform="matrix(0.06234567901234563,0,0,0.06234567901234563,31.17283950617282,0)" xlink:href="#aK"/><use transform="matrix(0.06234567901234563,0,0,0.06234567901234563,43.641975308641946,0)" xlink:href="#aS"/><use transform="matrix(0.06234567901234563,0,0,0.06234567901234563,48.56728395061725,0)" xlink:href="#aT"/><use transform="matrix(0.06234567901234563,0,0,0.06234567901234563,53.49259259259256,0)" xlink:href="#bf"/><use transform="matrix(0.06234567901234563,0,0,0.06234567901234563,64.71481481481477,0)" xlink:href="#aK"/><use transform="matrix(0.06234567901234563,0,0,0.06234567901234563,77.1839506172839,0)" xlink:href="#aL"/><use transform="matrix(0.06234567901234563,0,0,0.06234567901234563,84.60308641975303,0)" xlink:href="#bm"/><use transform="matrix(0.06234567901234563,0,0,0.06234567901234563,99.56604938271597,0)" xlink:href="#aK"/><use transform="matrix(0.06234567901234563,0,0,0.06234567901234563,112.0351851851851,0)" xlink:href="#aX"/><use transform="matrix(0.06234567901234563,0,0,0.06234567901234563,124.50432098765422,0)" xlink:href="#aT"/><use transform="matrix(0.06234567901234563,0,0,0.06234567901234563,129.42962962962952,0)" xlink:href="#aU"/><use transform="matrix(0.06234567901234563,0,0,0.06234567901234563,141.89876543209866,0)" xlink:href="#aK"/><use transform="matrix(0.06234567901234563,0,0,0.06234567901234563,154.3679012345678,0)" xlink:href="#aM"/><use transform="matrix(0.06234567901234563,0,0,0.06234567901234563,161.78703703703692,0)" xlink:href="#aN"/></g><path d="M33 0v-248h34V0H33" id="bq"/><path d="M106-169C34-169 62-67 57 0H25v-261h32l-1 103c12-21 28-36 61-36 89 0 53 116 60 194h-32v-121c2-32-8-49-39-48" id="br"/><g id="B"><use transform="matrix(0.07469135802469132,0,0,0.07469135802469132,0,0)" xlink:href="#bq"/><use transform="matrix(0.07469135802469132,0,0,0.07469135802469132,7.469135802469132,0)" xlink:href="#aO"/><use transform="matrix(0.07469135802469132,0,0,0.07469135802469132,22.407407407407394,0)" xlink:href="#br"/><use transform="matrix(0.07469135802469132,0,0,0.07469135802469132,37.345679012345656,0)" xlink:href="#aI"/><use transform="matrix(0.07469135802469132,0,0,0.07469135802469132,52.28395061728392,0)" xlink:href="#aU"/><use transform="matrix(0.07469135802469132,0,0,0.07469135802469132,67.22222222222219,0)" xlink:href="#aR"/></g></defs></g></svg>